<?xml version="1.0" encoding="utf-8" standalone="no"?>
<!DOCTYPE svg PUBLIC "-//W3C//DTD SVG 1.1//EN"
  "http://www.w3.org/Graphics/SVG/1.1/DTD/svg11.dtd">
<svg xmlns:xlink="http://www.w3.org/1999/xlink" width="75.96pt" height="62.96pt" viewBox="0 0 75.96 62.96" xmlns="http://www.w3.org/2000/svg" version="1.1">
 <metadata>
  <rdf:RDF xmlns:dc="http://purl.org/dc/elements/1.1/" xmlns:cc="http://creativecommons.org/ns#" xmlns:rdf="http://www.w3.org/1999/02/22-rdf-syntax-ns#">
   <cc:Work>
    <dc:type rdf:resource="http://purl.org/dc/dcmitype/StillImage"/>
    <dc:date>2025-09-27T17:07:56.517228</dc:date>
    <dc:format>image/svg+xml</dc:format>
    <dc:creator>
     <cc:Agent>
      <dc:title>Matplotlib v3.10.0, https://matplotlib.org/</dc:title>
     </cc:Agent>
    </dc:creator>
   </cc:Work>
  </rdf:RDF>
 </metadata>
 <defs>
  <style type="text/css">*{stroke-linejoin: round; stroke-linecap: butt}</style>
 </defs>
 <g id="figure_1">
  <g id="patch_1">
   <path d="M 0 62.96 
L 75.96 62.96 
L 75.96 0 
L 0 0 
L 0 62.96 
z
" style="fill: none"/>
  </g>
  <g id="axes_1">
   <g id="line2d_1">
    <path d="M 40.68 58.28 
L 41.833264 58.243017 
L 42.981789 58.13222 
L 44.120855 57.948065 
L 45.245783 57.691308 
L 46.351948 57.363003 
L 47.434806 56.964502 
L 48.489907 56.49744 
L 49.512916 55.963737 
L 50.499628 55.365586 
L 51.44599 54.705445 
L 52.348111 53.986027 
L 53.202286 53.210288 
L 54.005004 52.381416 
L 54.752967 51.502816 
L 55.443101 50.5781 
L 56.07257 49.611066 
L 56.638788 48.605689 
L 57.139427 47.5661 
L 57.572432 46.496571 
L 57.936021 45.401497 
L 58.228702 44.285377 
L 58.449272 43.152798 
L 58.596824 42.008414 
L 58.670752 40.856928 
L 58.670752 39.703072 
L 58.596824 38.551586 
L 58.449272 37.407202 
L 58.228702 36.274623 
L 57.936021 35.158503 
L 57.572432 34.063429 
L 57.139427 32.9939 
L 56.638788 31.954311 
L 56.07257 30.948934 
L 55.443101 29.9819 
L 54.752967 29.057184 
L 54.005004 28.178584 
L 53.202286 27.349712 
L 52.348111 26.573973 
L 51.44599 25.854555 
L 50.499628 25.194414 
L 49.512916 24.596263 
L 48.489907 24.06256 
L 47.434806 23.595498 
L 46.351948 23.196997 
L 45.245783 22.868692 
L 44.120855 22.611935 
L 42.981789 22.42778 
L 41.833264 22.316983 
L 40.68 22.28 
L 40.68 22.28 
L 17.28 22.28 
L 17.28 40.28 
L 17.28 58.28 
L 40.68 58.28 
" clip-path="url(#pa36fd2dab6)" style="fill: none; stroke: #000000; stroke-width: 2; stroke-linecap: round"/>
   </g>
   <g id="line2d_2">
    <path d="M 4.68 49.28 
L 17.28 49.28 
" clip-path="url(#pa36fd2dab6)" style="fill: none; stroke: #000000; stroke-width: 2; stroke-linecap: round"/>
   </g>
   <g id="line2d_3">
    <path d="M 4.68 31.28 
L 17.28 31.28 
" clip-path="url(#pa36fd2dab6)" style="fill: none; stroke: #000000; stroke-width: 2; stroke-linecap: round"/>
   </g>
   <g id="line2d_4">
    <path d="M 58.68 40.28 
L 71.28 40.28 
" clip-path="url(#pa36fd2dab6)" style="fill: none; stroke: #000000; stroke-width: 2; stroke-linecap: round"/>
   </g>
   <g id="text_1">
    <!-- AND -->
    <g transform="translate(22.564688 15.768437) scale(0.14 -0.14)">
     <defs>
      <path id="DejaVuSans-41" d="M 2188 4044 
L 1331 1722 
L 3047 1722 
L 2188 4044 
z
M 1831 4666 
L 2547 4666 
L 4325 0 
L 3669 0 
L 3244 1197 
L 1141 1197 
L 716 0 
L 50 0 
L 1831 4666 
z
" transform="scale(0.015625)"/>
      <path id="DejaVuSans-4e" d="M 628 4666 
L 1478 4666 
L 3547 763 
L 3547 4666 
L 4159 4666 
L 4159 0 
L 3309 0 
L 1241 3903 
L 1241 0 
L 628 0 
L 628 4666 
z
" transform="scale(0.015625)"/>
      <path id="DejaVuSans-44" d="M 1259 4147 
L 1259 519 
L 2022 519 
Q 2988 519 3436 956 
Q 3884 1394 3884 2338 
Q 3884 3275 3436 3711 
Q 2988 4147 2022 4147 
L 1259 4147 
z
M 628 4666 
L 1925 4666 
Q 3281 4666 3915 4102 
Q 4550 3538 4550 2338 
Q 4550 1131 3912 565 
Q 3275 0 1925 0 
L 628 0 
L 628 4666 
z
" transform="scale(0.015625)"/>
     </defs>
     <use xlink:href="#DejaVuSans-41"/>
     <use xlink:href="#DejaVuSans-4e" transform="translate(68.408203 0)"/>
     <use xlink:href="#DejaVuSans-44" transform="translate(143.212891 0)"/>
    </g>
   </g>
  </g>
 </g>
 <defs>
  <clipPath id="pa36fd2dab6">
   <rect x="0" y="0" width="75.96" height="62.96"/>
  </clipPath>
 </defs>
</svg>
