<?xml version="1.0" encoding="utf-8" standalone="no"?>
<!DOCTYPE svg PUBLIC "-//W3C//DTD SVG 1.1//EN"
  "http://www.w3.org/Graphics/SVG/1.1/DTD/svg11.dtd">
<svg xmlns:xlink="http://www.w3.org/1999/xlink" width="379.992pt" height="167.42pt" viewBox="0 0 379.992 167.42" xmlns="http://www.w3.org/2000/svg" version="1.1">
 <metadata>
  <rdf:RDF xmlns:dc="http://purl.org/dc/elements/1.1/" xmlns:cc="http://creativecommons.org/ns#" xmlns:rdf="http://www.w3.org/1999/02/22-rdf-syntax-ns#">
   <cc:Work>
    <dc:type rdf:resource="http://purl.org/dc/dcmitype/StillImage"/>
    <dc:date>2025-09-23T23:35:34.898119</dc:date>
    <dc:format>image/svg+xml</dc:format>
    <dc:creator>
     <cc:Agent>
      <dc:title>Matplotlib v3.10.0, https://matplotlib.org/</dc:title>
     </cc:Agent>
    </dc:creator>
   </cc:Work>
  </rdf:RDF>
 </metadata>
 <defs>
  <style type="text/css">*{stroke-linejoin: round; stroke-linecap: butt}</style>
 </defs>
 <g id="figure_1">
  <g id="patch_1">
   <path d="M 0 167.42 
L 379.992 167.42 
L 379.992 0 
L 0 0 
L 0 167.42 
z
" style="fill: none"/>
  </g>
  <g id="axes_1">
   <g id="patch_2">
    <path d="M 204.312 79.04 
C 209.563021 79.04 214.599681 76.953747 218.312714 73.240714 
C 222.025747 69.527681 224.112 64.491021 224.112 59.24 
C 224.112 53.988979 222.025747 48.952319 218.312714 45.239286 
C 214.599681 41.526253 209.563021 39.44 204.312 39.44 
C 199.060979 39.44 194.024319 41.526253 190.311286 45.239286 
C 186.598253 48.952319 184.512 53.988979 184.512 59.24 
C 184.512 64.491021 186.598253 69.527681 190.311286 73.240714 
C 194.024319 76.953747 199.060979 79.04 204.312 79.04 
L 204.312 79.04 
z
" clip-path="url(#p26288ee3a0)" style="fill: none; stroke: #000000; stroke-width: 2; stroke-linejoin: miter"/>
   </g>
   <g id="line2d_1">
    <path d="M 204.312 79.04 
L 204.312 65.84 
" clip-path="url(#p26288ee3a0)" style="fill: none; stroke: #000000; stroke-width: 2; stroke-linecap: round"/>
   </g>
   <g id="line2d_2">
    <path d="M 191.112 65.84 
L 217.512 65.84 
" clip-path="url(#p26288ee3a0)" style="fill: none; stroke: #000000; stroke-width: 2; stroke-linecap: round"/>
   </g>
   <g id="line2d_3">
    <path d="M 197.712 65.84 
L 185.832 51.98 
L 179.232 51.98 
" clip-path="url(#p26288ee3a0)" style="fill: none; stroke: #000000; stroke-width: 2; stroke-linecap: round"/>
   </g>
   <g id="line2d_4">
    <path d="M 210.912 65.84 
L 222.792 51.98 
L 229.392 51.98 
" clip-path="url(#p26288ee3a0)" style="fill: none; stroke: #000000; stroke-width: 2; stroke-linecap: round"/>
   </g>
   <g id="line2d_5">
    <path d="M 210.912 65.84 
L 216.934878 58.813309 
" clip-path="url(#p26288ee3a0)" style="fill: none; stroke: #000000; stroke-width: 2; stroke-linecap: round"/>
   </g>
   <g id="patch_3">
    <path d="M 214.201554 56.47046 
L 222.792 51.98 
L 219.668201 61.156158 
z
" clip-path="url(#p26288ee3a0)"/>
   </g>
   <g id="line2d_6">
    <path d="M 179.232 51.98 
L 143.232 51.98 
L 143.232 60.98 
L 107.232 60.98 
L 107.232 42.98 
L 143.232 42.98 
L 143.232 51.98 
M 107.232 51.98 
L 71.232 51.98 
" clip-path="url(#p26288ee3a0)" style="fill: none; stroke: #000000; stroke-width: 2; stroke-linecap: round"/>
   </g>
   <g id="line2d_7">
    <path d="M 71.232 51.98 
L 57.732 51.98 
L 44.232 51.98 
" clip-path="url(#p26288ee3a0)" style="fill: none; stroke: #000000; stroke-width: 2; stroke-linecap: round"/>
   </g>
   <g id="line2d_8">
    <path d="M 44.232 51.98 
L 43.272 92.51 
L 42.312 133.04 
" clip-path="url(#p26288ee3a0)" style="fill: none; stroke: #000000; stroke-width: 2; stroke-linecap: round"/>
   </g>
   <g id="line2d_9">
    <path d="M 42.312 133.04 
L 42.312 146.54 
L 42.312 160.04 
" clip-path="url(#p26288ee3a0)" style="fill: none; stroke: #000000; stroke-width: 2; stroke-linecap: round"/>
   </g>
   <g id="line2d_10">
    <path d="M 179.232 51.98 
L 179.232 38.48 
L 179.232 24.98 
" clip-path="url(#p26288ee3a0)" style="fill: none; stroke: #000000; stroke-width: 2; stroke-linecap: round"/>
   </g>
   <g id="line2d_11">
    <path d="M 229.392 51.98 
L 265.392 51.98 
L 265.392 42.98 
L 301.392 42.98 
L 301.392 60.98 
L 265.392 60.98 
L 265.392 51.98 
M 301.392 51.98 
L 337.392 51.98 
" clip-path="url(#p26288ee3a0)" style="fill: none; stroke: #000000; stroke-width: 2; stroke-linecap: round"/>
   </g>
   <g id="line2d_12">
    <path d="M 337.392 51.98 
L 350.892 51.98 
L 364.392 51.98 
" clip-path="url(#p26288ee3a0)" style="fill: none; stroke: #000000; stroke-width: 2; stroke-linecap: round"/>
   </g>
   <g id="line2d_13">
    <path d="M 204.312 79.04 
L 204.312 106.04 
L 204.312 133.04 
" clip-path="url(#p26288ee3a0)" style="fill: none; stroke: #000000; stroke-width: 2; stroke-linecap: round"/>
   </g>
   <g id="line2d_14">
    <path d="M 204.312 133.04 
L 204.312 146.54 
L 204.312 160.04 
" clip-path="url(#p26288ee3a0)" style="fill: none; stroke: #000000; stroke-width: 2; stroke-linecap: round"/>
   </g>
   <g id="line2d_15">
    <path d="M 204.312 133.04 
L 190.812 133.04 
L 177.312 133.04 
" clip-path="url(#p26288ee3a0)" style="fill: none; stroke: #000000; stroke-width: 2; stroke-linecap: round"/>
   </g>
   <g id="line2d_16">
    <path d="M 177.312 133.04 
L 141.312 133.04 
L 141.312 142.04 
L 105.312 142.04 
L 105.312 124.04 
L 141.312 124.04 
L 141.312 133.04 
M 105.312 133.04 
L 69.312 133.04 
" clip-path="url(#p26288ee3a0)" style="fill: none; stroke: #000000; stroke-width: 2; stroke-linecap: round"/>
   </g>
   <g id="line2d_17">
    <path d="M 69.312 133.04 
L 55.812 133.04 
L 42.312 133.04 
" clip-path="url(#p26288ee3a0)" style="fill: none; stroke: #000000; stroke-width: 2; stroke-linecap: round"/>
   </g>
   <g id="line2d_18">
    <path d="M 42.312 133.04 
" clip-path="url(#p26288ee3a0)" style="fill: none; stroke: #000000; stroke-width: 2; stroke-linecap: round"/>
   </g>
   <g id="line2d_19">
    <path d="M 204.312 133.04 
L 217.812 133.04 
L 231.312 133.04 
" clip-path="url(#p26288ee3a0)" style="fill: none; stroke: #000000; stroke-width: 2; stroke-linecap: round"/>
   </g>
   <g id="line2d_20">
    <path d="M 231.312 133.04 
L 267.312 133.04 
L 267.312 124.04 
L 303.312 124.04 
L 303.312 142.04 
L 267.312 142.04 
L 267.312 133.04 
M 303.312 133.04 
L 339.312 133.04 
" clip-path="url(#p26288ee3a0)" style="fill: none; stroke: #000000; stroke-width: 2; stroke-linecap: round"/>
   </g>
   <g id="line2d_21">
    <path d="M 339.312 133.04 
L 352.812 133.04 
L 366.312 133.04 
" clip-path="url(#p26288ee3a0)" style="fill: none; stroke: #000000; stroke-width: 2; stroke-linecap: round"/>
   </g>
   <g id="line2d_22">
    <path d="M 366.312 133.04 
L 366.312 147.44 
L 357.312 147.44 
L 375.312 147.44 
M 360.012 151.76 
L 372.612 151.76 
M 364.512 156.08 
L 368.112 156.08 
" clip-path="url(#p26288ee3a0)" style="fill: none; stroke: #000000; stroke-width: 2; stroke-linecap: round"/>
   </g>
   <g id="line2d_23">
    <path d="M 366.312 133.04 
L 365.352 92.51 
L 364.392 51.98 
" clip-path="url(#p26288ee3a0)" style="fill: none; stroke: #000000; stroke-width: 2; stroke-linecap: round"/>
   </g>
   <g id="text_1">
    <!-- Q1 -->
    <g transform="translate(194.647938 32.928438) scale(0.14 -0.14)">
     <defs>
      <path id="DejaVuSans-51" d="M 2522 4238 
Q 1834 4238 1429 3725 
Q 1025 3213 1025 2328 
Q 1025 1447 1429 934 
Q 1834 422 2522 422 
Q 3209 422 3611 934 
Q 4013 1447 4013 2328 
Q 4013 3213 3611 3725 
Q 3209 4238 2522 4238 
z
M 3406 84 
L 4238 -825 
L 3475 -825 
L 2784 -78 
Q 2681 -84 2626 -87 
Q 2572 -91 2522 -91 
Q 1538 -91 948 567 
Q 359 1225 359 2328 
Q 359 3434 948 4092 
Q 1538 4750 2522 4750 
Q 3503 4750 4090 4092 
Q 4678 3434 4678 2328 
Q 4678 1516 4351 937 
Q 4025 359 3406 84 
z
" transform="scale(0.015625)"/>
      <path id="DejaVuSans-31" d="M 794 531 
L 1825 531 
L 1825 4091 
L 703 3866 
L 703 4441 
L 1819 4666 
L 2450 4666 
L 2450 531 
L 3481 531 
L 3481 0 
L 794 0 
L 794 531 
z
" transform="scale(0.015625)"/>
     </defs>
     <use xlink:href="#DejaVuSans-51"/>
     <use xlink:href="#DejaVuSans-31" transform="translate(78.710938 0)"/>
    </g>
   </g>
   <g id="text_2">
    <!-- $R_{C}$ -->
    <g transform="translate(116.692 36.468437) scale(0.14 -0.14)">
     <defs>
      <path id="DejaVuSans-Oblique-52" d="M 1613 4147 
L 1294 2491 
L 2106 2491 
Q 2584 2491 2879 2755 
Q 3175 3019 3175 3444 
Q 3175 3784 2976 3965 
Q 2778 4147 2406 4147 
L 1613 4147 
z
M 2772 2241 
Q 2972 2194 3105 2009 
Q 3238 1825 3413 1275 
L 3809 0 
L 3144 0 
L 2778 1197 
Q 2638 1659 2453 1815 
Q 2269 1972 1888 1972 
L 1191 1972 
L 806 0 
L 172 0 
L 1081 4666 
L 2503 4666 
Q 3150 4666 3495 4373 
Q 3841 4081 3841 3531 
Q 3841 3044 3547 2687 
Q 3253 2331 2772 2241 
z
" transform="scale(0.015625)"/>
      <path id="DejaVuSans-Oblique-43" d="M 4447 4306 
L 4319 3641 
Q 4019 3944 3683 4091 
Q 3347 4238 2956 4238 
Q 2422 4238 2017 3981 
Q 1613 3725 1319 3200 
Q 1131 2863 1032 2486 
Q 934 2109 934 1728 
Q 934 1091 1264 756 
Q 1594 422 2222 422 
Q 2656 422 3056 561 
Q 3456 700 3834 978 
L 3688 231 
Q 3316 72 2936 -9 
Q 2556 -91 2175 -91 
Q 1278 -91 773 396 
Q 269 884 269 1753 
Q 269 2309 461 2846 
Q 653 3384 1013 3828 
Q 1394 4300 1883 4525 
Q 2372 4750 3022 4750 
Q 3422 4750 3780 4639 
Q 4138 4528 4447 4306 
z
" transform="scale(0.015625)"/>
     </defs>
     <use xlink:href="#DejaVuSans-Oblique-52" transform="translate(0 0.09375)"/>
     <use xlink:href="#DejaVuSans-Oblique-43" transform="translate(69.482422 -16.3125) scale(0.7)"/>
    </g>
   </g>
   <g id="patch_4">
    <path d="M 42.312 135.74 
C 43.028048 135.74 43.714866 135.455511 44.221188 134.949188 
C 44.727511 134.442866 45.012 133.756048 45.012 133.04 
C 45.012 132.323952 44.727511 131.637134 44.221188 131.130812 
C 43.714866 130.624489 43.028048 130.34 42.312 130.34 
C 41.595952 130.34 40.909134 130.624489 40.402812 131.130812 
C 39.896489 131.637134 39.612 132.323952 39.612 133.04 
C 39.612 133.756048 39.896489 134.442866 40.402812 134.949188 
C 40.909134 135.455511 41.595952 135.74 42.312 135.74 
z
" clip-path="url(#p26288ee3a0)" style="stroke: #000000; stroke-width: 2; stroke-linejoin: miter"/>
   </g>
   <g id="patch_5">
    <path d="M 42.312 162.74 
C 43.028048 162.74 43.714866 162.455511 44.221188 161.949188 
C 44.727511 161.442866 45.012 160.756048 45.012 160.04 
C 45.012 159.323952 44.727511 158.637134 44.221188 158.130812 
C 43.714866 157.624489 43.028048 157.34 42.312 157.34 
C 41.595952 157.34 40.909134 157.624489 40.402812 158.130812 
C 39.896489 158.637134 39.612 159.323952 39.612 160.04 
C 39.612 160.756048 39.896489 161.442866 40.402812 161.949188 
C 40.909134 162.455511 41.595952 162.74 42.312 162.74 
z
" clip-path="url(#p26288ee3a0)" style="stroke: #000000; stroke-width: 2; stroke-linejoin: miter"/>
   </g>
   <g id="text_3">
    <!-- $U_{CC}$ -->
    <g transform="translate(11.652 151.753125) scale(0.14 -0.14)">
     <defs>
      <path id="DejaVuSans-Oblique-55" d="M 991 4666 
L 1625 4666 
L 1075 1831 
Q 1041 1641 1027 1517 
Q 1013 1394 1013 1300 
Q 1013 869 1253 645 
Q 1494 422 1959 422 
Q 2563 422 2898 753 
Q 3234 1084 3378 1831 
L 3928 4666 
L 4563 4666 
L 4000 1753 
Q 3816 809 3300 359 
Q 2784 -91 1888 -91 
Q 1188 -91 780 261 
Q 372 613 372 1216 
Q 372 1325 387 1461 
Q 403 1597 434 1753 
L 991 4666 
z
" transform="scale(0.015625)"/>
     </defs>
     <use xlink:href="#DejaVuSans-Oblique-55" transform="translate(0 0.09375)"/>
     <use xlink:href="#DejaVuSans-Oblique-43" transform="translate(73.193359 -16.3125) scale(0.7)"/>
     <use xlink:href="#DejaVuSans-Oblique-43" transform="translate(122.070312 -16.3125) scale(0.7)"/>
    </g>
   </g>
   <g id="patch_6">
    <path d="M 179.232 27.68 
C 179.948048 27.68 180.634866 27.395511 181.141188 26.889188 
C 181.647511 26.382866 181.932 25.696048 181.932 24.98 
C 181.932 24.263952 181.647511 23.577134 181.141188 23.070812 
C 180.634866 22.564489 179.948048 22.28 179.232 22.28 
C 178.515952 22.28 177.829134 22.564489 177.322812 23.070812 
C 176.816489 23.577134 176.532 24.263952 176.532 24.98 
C 176.532 25.696048 176.816489 26.382866 177.322812 26.889188 
C 177.829134 27.395511 178.515952 27.68 179.232 27.68 
z
" clip-path="url(#p26288ee3a0)" style="stroke: #000000; stroke-width: 2; stroke-linejoin: miter"/>
   </g>
   <g id="text_4">
    <!-- $U_{CE}$ -->
    <g transform="translate(167.332 15.768438) scale(0.14 -0.14)">
     <defs>
      <path id="DejaVuSans-Oblique-45" d="M 1081 4666 
L 4031 4666 
L 3928 4134 
L 1606 4134 
L 1338 2753 
L 3566 2753 
L 3463 2222 
L 1234 2222 
L 909 531 
L 3284 531 
L 3181 0 
L 172 0 
L 1081 4666 
z
" transform="scale(0.015625)"/>
     </defs>
     <use xlink:href="#DejaVuSans-Oblique-55" transform="translate(0 0.09375)"/>
     <use xlink:href="#DejaVuSans-Oblique-43" transform="translate(73.193359 -16.3125) scale(0.7)"/>
     <use xlink:href="#DejaVuSans-Oblique-45" transform="translate(122.070312 -16.3125) scale(0.7)"/>
    </g>
   </g>
   <g id="text_5">
    <!-- $R_{E}$ -->
    <g transform="translate(275.202 36.468437) scale(0.14 -0.14)">
     <use xlink:href="#DejaVuSans-Oblique-52" transform="translate(0 0.09375)"/>
     <use xlink:href="#DejaVuSans-Oblique-45" transform="translate(69.482422 -16.3125) scale(0.7)"/>
    </g>
   </g>
   <g id="patch_7">
    <path d="M 204.312 162.74 
C 205.028048 162.74 205.714866 162.455511 206.221188 161.949188 
C 206.727511 161.442866 207.012 160.756048 207.012 160.04 
C 207.012 159.323952 206.727511 158.637134 206.221188 158.130812 
C 205.714866 157.624489 205.028048 157.34 204.312 157.34 
C 203.595952 157.34 202.909134 157.624489 202.402812 158.130812 
C 201.896489 158.637134 201.612 159.323952 201.612 160.04 
C 201.612 160.756048 201.896489 161.442866 202.402812 161.949188 
C 202.909134 162.455511 203.595952 162.74 204.312 162.74 
z
" clip-path="url(#p26288ee3a0)" style="stroke: #000000; stroke-width: 2; stroke-linejoin: miter"/>
   </g>
   <g id="text_6">
    <!-- $U_{BE}$ -->
    <g transform="translate(210.612 151.753125) scale(0.14 -0.14)">
     <defs>
      <path id="DejaVuSans-Oblique-42" d="M 1081 4666 
L 2694 4666 
Q 3350 4666 3675 4422 
Q 4000 4178 4000 3688 
Q 4000 3238 3720 2911 
Q 3441 2584 2988 2516 
Q 3375 2428 3569 2181 
Q 3763 1934 3763 1522 
Q 3763 819 3242 409 
Q 2722 0 1819 0 
L 172 0 
L 1081 4666 
z
M 1234 2228 
L 903 519 
L 1919 519 
Q 2491 519 2800 781 
Q 3109 1044 3109 1522 
Q 3109 1891 2904 2059 
Q 2700 2228 2247 2228 
L 1234 2228 
z
M 1606 4147 
L 1331 2741 
L 2272 2741 
Q 2775 2741 3058 2959 
Q 3341 3178 3341 3566 
Q 3341 3869 3150 4008 
Q 2959 4147 2541 4147 
L 1606 4147 
z
" transform="scale(0.015625)"/>
     </defs>
     <use xlink:href="#DejaVuSans-Oblique-55" transform="translate(0 0.09375)"/>
     <use xlink:href="#DejaVuSans-Oblique-42" transform="translate(73.193359 -16.3125) scale(0.7)"/>
     <use xlink:href="#DejaVuSans-Oblique-45" transform="translate(121.21582 -16.3125) scale(0.7)"/>
    </g>
   </g>
   <g id="text_7">
    <!-- $R_{1}$ -->
    <g transform="translate(115.122 117.528437) scale(0.14 -0.14)">
     <use xlink:href="#DejaVuSans-Oblique-52" transform="translate(0 0.09375)"/>
     <use xlink:href="#DejaVuSans-31" transform="translate(69.482422 -16.3125) scale(0.7)"/>
    </g>
   </g>
   <g id="text_8">
    <!-- $R_{2}$ -->
    <g transform="translate(277.122 117.528437) scale(0.14 -0.14)">
     <defs>
      <path id="DejaVuSans-32" d="M 1228 531 
L 3431 531 
L 3431 0 
L 469 0 
L 469 531 
Q 828 903 1448 1529 
Q 2069 2156 2228 2338 
Q 2531 2678 2651 2914 
Q 2772 3150 2772 3378 
Q 2772 3750 2511 3984 
Q 2250 4219 1831 4219 
Q 1534 4219 1204 4116 
Q 875 4013 500 3803 
L 500 4441 
Q 881 4594 1212 4672 
Q 1544 4750 1819 4750 
Q 2544 4750 2975 4387 
Q 3406 4025 3406 3419 
Q 3406 3131 3298 2873 
Q 3191 2616 2906 2266 
Q 2828 2175 2409 1742 
Q 1991 1309 1228 531 
z
" transform="scale(0.015625)"/>
     </defs>
     <use xlink:href="#DejaVuSans-Oblique-52" transform="translate(0 0.09375)"/>
     <use xlink:href="#DejaVuSans-32" transform="translate(69.482422 -16.3125) scale(0.7)"/>
    </g>
   </g>
   <g id="patch_8">
    <path d="M 366.312 135.74 
C 367.028048 135.74 367.714866 135.455511 368.221188 134.949188 
C 368.727511 134.442866 369.012 133.756048 369.012 133.04 
C 369.012 132.323952 368.727511 131.637134 368.221188 131.130812 
C 367.714866 130.624489 367.028048 130.34 366.312 130.34 
C 365.595952 130.34 364.909134 130.624489 364.402812 131.130812 
C 363.896489 131.637134 363.612 132.323952 363.612 133.04 
C 363.612 133.756048 363.896489 134.442866 364.402812 134.949188 
C 364.909134 135.455511 365.595952 135.74 366.312 135.74 
z
" clip-path="url(#p26288ee3a0)" style="stroke: #000000; stroke-width: 2; stroke-linejoin: miter"/>
   </g>
   <g id="patch_9">
    <path d="M 204.312 135.74 
C 205.028048 135.74 205.714866 135.455511 206.221188 134.949188 
C 206.727511 134.442866 207.012 133.756048 207.012 133.04 
C 207.012 132.323952 206.727511 131.637134 206.221188 131.130812 
C 205.714866 130.624489 205.028048 130.34 204.312 130.34 
C 203.595952 130.34 202.909134 130.624489 202.402812 131.130812 
C 201.896489 131.637134 201.612 132.323952 201.612 133.04 
C 201.612 133.756048 201.896489 134.442866 202.402812 134.949188 
C 202.909134 135.455511 203.595952 135.74 204.312 135.74 
z
" clip-path="url(#p26288ee3a0)" style="stroke: #000000; stroke-width: 2; stroke-linejoin: miter"/>
   </g>
  </g>
 </g>
 <defs>
  <clipPath id="p26288ee3a0">
   <rect x="0" y="0" width="379.992" height="167.42"/>
  </clipPath>
 </defs>
</svg>
