<?xml version="1.0" encoding="utf-8" standalone="no"?>
<!DOCTYPE svg PUBLIC "-//W3C//DTD SVG 1.1//EN"
  "http://www.w3.org/Graphics/SVG/1.1/DTD/svg11.dtd">
<svg xmlns:xlink="http://www.w3.org/1999/xlink" width="117.36pt" height="17.459978pt" viewBox="0 0 117.36 17.459978" xmlns="http://www.w3.org/2000/svg" version="1.1">
 <metadata>
  <rdf:RDF xmlns:dc="http://purl.org/dc/elements/1.1/" xmlns:cc="http://creativecommons.org/ns#" xmlns:rdf="http://www.w3.org/1999/02/22-rdf-syntax-ns#">
   <cc:Work>
    <dc:type rdf:resource="http://purl.org/dc/dcmitype/StillImage"/>
    <dc:date>2025-09-30T22:36:36.379099</dc:date>
    <dc:format>image/svg+xml</dc:format>
    <dc:creator>
     <cc:Agent>
      <dc:title>Matplotlib v3.10.0, https://matplotlib.org/</dc:title>
     </cc:Agent>
    </dc:creator>
   </cc:Work>
  </rdf:RDF>
 </metadata>
 <defs>
  <style type="text/css">*{stroke-linejoin: round; stroke-linecap: butt}</style>
 </defs>
 <g id="figure_1">
  <g id="patch_1">
   <path d="M 0 17.459978 
L 117.36 17.459978 
L 117.36 0 
L 0 0 
L 0 17.459978 
z
" style="fill: none"/>
  </g>
  <g id="axes_1">
   <g id="patch_2">
    <path d="M 49.68 12.779978 
C 49.68 11.586961 49.205571 10.441587 48.361981 9.597997 
C 47.51839 8.754407 46.373016 8.279978 45.18 8.279978 
C 43.986984 8.279978 42.84161 8.754407 41.998019 9.597997 
C 41.154429 10.441587 40.68 11.586961 40.68 12.779978 
" clip-path="url(#p9ee72e812c)" style="fill: none; stroke: #000000; stroke-width: 2; stroke-linejoin: miter"/>
   </g>
   <g id="patch_3">
    <path d="M 58.68 12.779978 
C 58.68 11.586961 58.205571 10.441587 57.361981 9.597997 
C 56.51839 8.754407 55.373016 8.279978 54.18 8.279978 
C 52.986984 8.279978 51.84161 8.754407 50.998019 9.597997 
C 50.154429 10.441587 49.68 11.586961 49.68 12.779978 
" clip-path="url(#p9ee72e812c)" style="fill: none; stroke: #000000; stroke-width: 2; stroke-linejoin: miter"/>
   </g>
   <g id="patch_4">
    <path d="M 67.68 12.779978 
C 67.68 11.586961 67.205571 10.441587 66.361981 9.597997 
C 65.51839 8.754407 64.373016 8.279978 63.18 8.279978 
C 61.986984 8.279978 60.84161 8.754407 59.998019 9.597997 
C 59.154429 10.441587 58.68 11.586961 58.68 12.779978 
" clip-path="url(#p9ee72e812c)" style="fill: none; stroke: #000000; stroke-width: 2; stroke-linejoin: miter"/>
   </g>
   <g id="patch_5">
    <path d="M 76.68 12.779978 
C 76.68 11.586961 76.205571 10.441587 75.361981 9.597997 
C 74.51839 8.754407 73.373016 8.279978 72.18 8.279978 
C 70.986984 8.279978 69.84161 8.754407 68.998019 9.597997 
C 68.154429 10.441587 67.68 11.586961 67.68 12.779978 
" clip-path="url(#p9ee72e812c)" style="fill: none; stroke: #000000; stroke-width: 2; stroke-linejoin: miter"/>
   </g>
   <g id="line2d_1">
    <path d="M 4.68 12.779978 
L 40.68 12.779978 
M 76.68 12.779978 
L 112.68 12.779978 
" clip-path="url(#p9ee72e812c)" style="fill: none; stroke: #000000; stroke-width: 2; stroke-linecap: round"/>
   </g>
  </g>
 </g>
 <defs>
  <clipPath id="p9ee72e812c">
   <rect x="0" y="0" width="117.36" height="17.459978"/>
  </clipPath>
 </defs>
</svg>
