<?xml version="1.0" encoding="utf-8" standalone="no"?>
<!DOCTYPE svg PUBLIC "-//W3C//DTD SVG 1.1//EN"
  "http://www.w3.org/Graphics/SVG/1.1/DTD/svg11.dtd">
<svg xmlns:xlink="http://www.w3.org/1999/xlink" width="315.518286pt" height="212pt" viewBox="0 0 315.518286 212" xmlns="http://www.w3.org/2000/svg" version="1.1">
 <metadata>
  <rdf:RDF xmlns:dc="http://purl.org/dc/elements/1.1/" xmlns:cc="http://creativecommons.org/ns#" xmlns:rdf="http://www.w3.org/1999/02/22-rdf-syntax-ns#">
   <cc:Work>
    <dc:type rdf:resource="http://purl.org/dc/dcmitype/StillImage"/>
    <dc:date>2025-09-23T18:50:47.326117</dc:date>
    <dc:format>image/svg+xml</dc:format>
    <dc:creator>
     <cc:Agent>
      <dc:title>Matplotlib v3.10.0, https://matplotlib.org/</dc:title>
     </cc:Agent>
    </dc:creator>
   </cc:Work>
  </rdf:RDF>
 </metadata>
 <defs>
  <style type="text/css">*{stroke-linejoin: round; stroke-linecap: butt}</style>
 </defs>
 <g id="figure_1">
  <g id="patch_1">
   <path d="M 0 212 
L 315.518286 212 
L 315.518286 0 
L 0 0 
L 0 212 
z
" style="fill: none"/>
  </g>
  <g id="axes_1">
   <g id="line2d_1">
    <path d="M 159.708 107.78 
L 159.708 62.78 
L 237.650286 107.78 
L 159.708 152.78 
L 159.708 107.78 
M 237.650286 107.78 
" clip-path="url(#pfb530e91a9)" style="fill: none; stroke: #000000; stroke-width: 2; stroke-linecap: round"/>
   </g>
   <g id="line2d_2">
    <path d="M 165.850786 85.28 
L 173.050786 85.28 
" clip-path="url(#pfb530e91a9)" style="fill: none; stroke: #000000; stroke-width: 2; stroke-linecap: round"/>
   </g>
   <g id="line2d_3">
    <path d="M 165.850786 130.28 
L 173.050786 130.28 
" clip-path="url(#pfb530e91a9)" style="fill: none; stroke: #000000; stroke-width: 2; stroke-linecap: round"/>
   </g>
   <g id="line2d_4">
    <path d="M 169.450786 133.88 
L 169.450786 126.68 
" clip-path="url(#pfb530e91a9)" style="fill: none; stroke: #000000; stroke-width: 2; stroke-linecap: round"/>
   </g>
   <g id="line2d_5">
    <path d="M 137.208 85.28 
L 159.708 85.28 
" clip-path="url(#pfb530e91a9)" style="fill: none; stroke: #000000; stroke-width: 2; stroke-linecap: round"/>
   </g>
   <g id="line2d_6">
    <path d="M 137.208 130.28 
L 159.708 130.28 
" clip-path="url(#pfb530e91a9)" style="fill: none; stroke: #000000; stroke-width: 2; stroke-linecap: round"/>
   </g>
   <g id="line2d_7">
    <path d="M 237.650286 107.78 
L 260.150286 107.78 
" clip-path="url(#pfb530e91a9)" style="fill: none; stroke: #000000; stroke-width: 2; stroke-linecap: round"/>
   </g>
   <g id="line2d_8">
    <path d="M 137.208 85.28 
L 101.208 85.28 
L 101.208 94.28 
L 65.208 94.28 
L 65.208 76.28 
L 101.208 76.28 
L 101.208 85.28 
M 65.208 85.28 
L 29.208 85.28 
" clip-path="url(#pfb530e91a9)" style="fill: none; stroke: #000000; stroke-width: 2; stroke-linecap: round"/>
   </g>
   <g id="line2d_9">
    <path d="M 137.208 85.28 
L 137.208 58.28 
L 137.208 31.28 
" clip-path="url(#pfb530e91a9)" style="fill: none; stroke: #000000; stroke-width: 2; stroke-linecap: round"/>
   </g>
   <g id="line2d_10">
    <path d="M 137.208 31.28 
L 180.679143 31.28 
L 180.679143 22.28 
L 216.679143 22.28 
L 216.679143 40.28 
L 180.679143 40.28 
L 180.679143 31.28 
M 216.679143 31.28 
L 260.150286 31.28 
" clip-path="url(#pfb530e91a9)" style="fill: none; stroke: #000000; stroke-width: 2; stroke-linecap: round"/>
   </g>
   <g id="line2d_11">
    <path d="M 260.150286 31.28 
L 260.150286 69.53 
L 260.150286 107.78 
" clip-path="url(#pfb530e91a9)" style="fill: none; stroke: #000000; stroke-width: 2; stroke-linecap: round"/>
   </g>
   <g id="line2d_12">
    <path d="M 137.208 130.28 
L 101.208 130.28 
L 101.208 139.28 
L 65.208 139.28 
L 65.208 121.28 
L 101.208 121.28 
L 101.208 130.28 
M 65.208 130.28 
L 29.208 130.28 
" clip-path="url(#pfb530e91a9)" style="fill: none; stroke: #000000; stroke-width: 2; stroke-linecap: round"/>
   </g>
   <g id="line2d_13">
    <path d="M 137.208 130.28 
L 137.208 157.28 
L 137.208 184.28 
" clip-path="url(#pfb530e91a9)" style="fill: none; stroke: #000000; stroke-width: 2; stroke-linecap: round"/>
   </g>
   <g id="line2d_14">
    <path d="M 137.208 184.28 
L 180.679143 184.28 
L 180.679143 175.28 
L 216.679143 175.28 
L 216.679143 193.28 
L 180.679143 193.28 
L 180.679143 184.28 
M 216.679143 184.28 
L 260.150286 184.28 
" clip-path="url(#pfb530e91a9)" style="fill: none; stroke: #000000; stroke-width: 2; stroke-linecap: round"/>
   </g>
   <g id="line2d_15">
    <path d="M 260.150286 184.28 
L 260.150286 198.68 
L 251.150286 198.68 
L 269.150286 198.68 
M 253.850286 203 
L 266.450286 203 
M 258.350286 207.32 
L 261.950286 207.32 
" clip-path="url(#pfb530e91a9)" style="fill: none; stroke: #000000; stroke-width: 2; stroke-linecap: round"/>
   </g>
   <g id="line2d_16">
    <path d="M 260.150286 107.78 
L 273.650286 107.78 
L 287.150286 107.78 
" clip-path="url(#pfb530e91a9)" style="fill: none; stroke: #000000; stroke-width: 2; stroke-linecap: round"/>
   </g>
   <g id="patch_2">
    <path d="M 29.208 87.98 
C 29.924048 87.98 30.610866 87.695511 31.117188 87.189188 
C 31.623511 86.682866 31.908 85.996048 31.908 85.28 
C 31.908 84.563952 31.623511 83.877134 31.117188 83.370812 
C 30.610866 82.864489 29.924048 82.58 29.208 82.58 
C 28.491952 82.58 27.805134 82.864489 27.298812 83.370812 
C 26.792489 83.877134 26.508 84.563952 26.508 85.28 
C 26.508 85.996048 26.792489 86.682866 27.298812 87.189188 
C 27.805134 87.695511 28.491952 87.98 29.208 87.98 
z
" clip-path="url(#pfb530e91a9)" style="stroke: #000000; stroke-width: 2; stroke-linejoin: miter"/>
   </g>
   <g id="patch_3">
    <path d="M 137.208 87.98 
C 137.924048 87.98 138.610866 87.695511 139.117188 87.189188 
C 139.623511 86.682866 139.908 85.996048 139.908 85.28 
C 139.908 84.563952 139.623511 83.877134 139.117188 83.370812 
C 138.610866 82.864489 137.924048 82.58 137.208 82.58 
C 136.491952 82.58 135.805134 82.864489 135.298812 83.370812 
C 134.792489 83.877134 134.508 84.563952 134.508 85.28 
C 134.508 85.996048 134.792489 86.682866 135.298812 87.189188 
C 135.805134 87.695511 136.491952 87.98 137.208 87.98 
z
" clip-path="url(#pfb530e91a9)" style="stroke: #000000; stroke-width: 2; stroke-linejoin: miter"/>
   </g>
   <g id="text_1">
    <!-- $R_{1}$ -->
    <g transform="translate(75.018 108.517812) scale(0.14 -0.14)">
     <defs>
      <path id="DejaVuSans-Oblique-52" d="M 1613 4147 
L 1294 2491 
L 2106 2491 
Q 2584 2491 2879 2755 
Q 3175 3019 3175 3444 
Q 3175 3784 2976 3965 
Q 2778 4147 2406 4147 
L 1613 4147 
z
M 2772 2241 
Q 2972 2194 3105 2009 
Q 3238 1825 3413 1275 
L 3809 0 
L 3144 0 
L 2778 1197 
Q 2638 1659 2453 1815 
Q 2269 1972 1888 1972 
L 1191 1972 
L 806 0 
L 172 0 
L 1081 4666 
L 2503 4666 
Q 3150 4666 3495 4373 
Q 3841 4081 3841 3531 
Q 3841 3044 3547 2687 
Q 3253 2331 2772 2241 
z
" transform="scale(0.015625)"/>
      <path id="DejaVuSans-31" d="M 794 531 
L 1825 531 
L 1825 4091 
L 703 3866 
L 703 4441 
L 1819 4666 
L 2450 4666 
L 2450 531 
L 3481 531 
L 3481 0 
L 794 0 
L 794 531 
z
" transform="scale(0.015625)"/>
     </defs>
     <use xlink:href="#DejaVuSans-Oblique-52" transform="translate(0 0.09375)"/>
     <use xlink:href="#DejaVuSans-31" transform="translate(69.482422 -16.3125) scale(0.7)"/>
    </g>
   </g>
   <g id="text_2">
    <!-- $v_{e}$ -->
    <g transform="translate(8.208 89.143125) scale(0.14 -0.14)">
     <defs>
      <path id="DejaVuSans-Oblique-76" d="M 459 3500 
L 1069 3500 
L 1581 525 
L 3256 3500 
L 3866 3500 
L 1875 0 
L 1100 0 
L 459 3500 
z
" transform="scale(0.015625)"/>
      <path id="DejaVuSans-Oblique-65" d="M 3078 2063 
Q 3088 2113 3092 2166 
Q 3097 2219 3097 2272 
Q 3097 2653 2873 2875 
Q 2650 3097 2266 3097 
Q 1838 3097 1509 2826 
Q 1181 2556 1013 2059 
L 3078 2063 
z
M 3578 1613 
L 903 1613 
Q 884 1494 878 1425 
Q 872 1356 872 1306 
Q 872 872 1139 634 
Q 1406 397 1894 397 
Q 2269 397 2603 481 
Q 2938 566 3225 728 
L 3116 159 
Q 2806 34 2476 -28 
Q 2147 -91 1806 -91 
Q 1078 -91 686 257 
Q 294 606 294 1247 
Q 294 1794 489 2264 
Q 684 2734 1063 3103 
Q 1306 3334 1642 3459 
Q 1978 3584 2356 3584 
Q 2950 3584 3301 3228 
Q 3653 2872 3653 2272 
Q 3653 2128 3634 1964 
Q 3616 1800 3578 1613 
z
" transform="scale(0.015625)"/>
     </defs>
     <use xlink:href="#DejaVuSans-Oblique-76" transform="translate(0 0.3125)"/>
     <use xlink:href="#DejaVuSans-Oblique-65" transform="translate(59.179688 -16.09375) scale(0.7)"/>
    </g>
   </g>
   <g id="text_3">
    <!-- $R_{2}$ -->
    <g transform="translate(190.489143 15.768437) scale(0.14 -0.14)">
     <defs>
      <path id="DejaVuSans-32" d="M 1228 531 
L 3431 531 
L 3431 0 
L 469 0 
L 469 531 
Q 828 903 1448 1529 
Q 2069 2156 2228 2338 
Q 2531 2678 2651 2914 
Q 2772 3150 2772 3378 
Q 2772 3750 2511 3984 
Q 2250 4219 1831 4219 
Q 1534 4219 1204 4116 
Q 875 4013 500 3803 
L 500 4441 
Q 881 4594 1212 4672 
Q 1544 4750 1819 4750 
Q 2544 4750 2975 4387 
Q 3406 4025 3406 3419 
Q 3406 3131 3298 2873 
Q 3191 2616 2906 2266 
Q 2828 2175 2409 1742 
Q 1991 1309 1228 531 
z
" transform="scale(0.015625)"/>
     </defs>
     <use xlink:href="#DejaVuSans-Oblique-52" transform="translate(0 0.09375)"/>
     <use xlink:href="#DejaVuSans-32" transform="translate(69.482422 -16.3125) scale(0.7)"/>
    </g>
   </g>
   <g id="patch_4">
    <path d="M 260.150286 110.48 
C 260.866335 110.48 261.553152 110.195511 262.059475 109.689188 
C 262.565797 109.182866 262.850286 108.496048 262.850286 107.78 
C 262.850286 107.063952 262.565797 106.377134 262.059475 105.870812 
C 261.553152 105.364489 260.866335 105.08 260.150286 105.08 
C 259.434238 105.08 258.747421 105.364489 258.241098 105.870812 
C 257.734775 106.377134 257.450286 107.063952 257.450286 107.78 
C 257.450286 108.496048 257.734775 109.182866 258.241098 109.689188 
C 258.747421 110.195511 259.434238 110.48 260.150286 110.48 
z
" clip-path="url(#pfb530e91a9)" style="stroke: #000000; stroke-width: 2; stroke-linejoin: miter"/>
   </g>
   <g id="patch_5">
    <path d="M 29.208 132.98 
C 29.924048 132.98 30.610866 132.695511 31.117188 132.189188 
C 31.623511 131.682866 31.908 130.996048 31.908 130.28 
C 31.908 129.563952 31.623511 128.877134 31.117188 128.370812 
C 30.610866 127.864489 29.924048 127.58 29.208 127.58 
C 28.491952 127.58 27.805134 127.864489 27.298812 128.370812 
C 26.792489 128.877134 26.508 129.563952 26.508 130.28 
C 26.508 130.996048 26.792489 131.682866 27.298812 132.189188 
C 27.805134 132.695511 28.491952 132.98 29.208 132.98 
z
" clip-path="url(#pfb530e91a9)" style="stroke: #000000; stroke-width: 2; stroke-linejoin: miter"/>
   </g>
   <g id="patch_6">
    <path d="M 137.208 132.98 
C 137.924048 132.98 138.610866 132.695511 139.117188 132.189188 
C 139.623511 131.682866 139.908 130.996048 139.908 130.28 
C 139.908 129.563952 139.623511 128.877134 139.117188 128.370812 
C 138.610866 127.864489 137.924048 127.58 137.208 127.58 
C 136.491952 127.58 135.805134 127.864489 135.298812 128.370812 
C 134.792489 128.877134 134.508 129.563952 134.508 130.28 
C 134.508 130.996048 134.792489 131.682866 135.298812 132.189188 
C 135.805134 132.695511 136.491952 132.98 137.208 132.98 
z
" clip-path="url(#pfb530e91a9)" style="stroke: #000000; stroke-width: 2; stroke-linejoin: miter"/>
   </g>
   <g id="text_4">
    <!-- $R_{3}$ -->
    <g transform="translate(75.018 153.517812) scale(0.14 -0.14)">
     <defs>
      <path id="DejaVuSans-33" d="M 2597 2516 
Q 3050 2419 3304 2112 
Q 3559 1806 3559 1356 
Q 3559 666 3084 287 
Q 2609 -91 1734 -91 
Q 1441 -91 1130 -33 
Q 819 25 488 141 
L 488 750 
Q 750 597 1062 519 
Q 1375 441 1716 441 
Q 2309 441 2620 675 
Q 2931 909 2931 1356 
Q 2931 1769 2642 2001 
Q 2353 2234 1838 2234 
L 1294 2234 
L 1294 2753 
L 1863 2753 
Q 2328 2753 2575 2939 
Q 2822 3125 2822 3475 
Q 2822 3834 2567 4026 
Q 2313 4219 1838 4219 
Q 1578 4219 1281 4162 
Q 984 4106 628 3988 
L 628 4550 
Q 988 4650 1302 4700 
Q 1616 4750 1894 4750 
Q 2613 4750 3031 4423 
Q 3450 4097 3450 3541 
Q 3450 3153 3228 2886 
Q 3006 2619 2597 2516 
z
" transform="scale(0.015625)"/>
     </defs>
     <use xlink:href="#DejaVuSans-Oblique-52" transform="translate(0 0.09375)"/>
     <use xlink:href="#DejaVuSans-33" transform="translate(69.482422 -16.3125) scale(0.7)"/>
    </g>
   </g>
   <g id="text_5">
    <!-- $v_{e}$ -->
    <g transform="translate(8.208 134.143125) scale(0.14 -0.14)">
     <use xlink:href="#DejaVuSans-Oblique-76" transform="translate(0 0.3125)"/>
     <use xlink:href="#DejaVuSans-Oblique-65" transform="translate(59.179688 -16.09375) scale(0.7)"/>
    </g>
   </g>
   <g id="text_6">
    <!-- $R_{4}$ -->
    <g transform="translate(190.489143 168.768437) scale(0.14 -0.14)">
     <defs>
      <path id="DejaVuSans-34" d="M 2419 4116 
L 825 1625 
L 2419 1625 
L 2419 4116 
z
M 2253 4666 
L 3047 4666 
L 3047 1625 
L 3713 1625 
L 3713 1100 
L 3047 1100 
L 3047 0 
L 2419 0 
L 2419 1100 
L 313 1100 
L 313 1709 
L 2253 4666 
z
" transform="scale(0.015625)"/>
     </defs>
     <use xlink:href="#DejaVuSans-Oblique-52" transform="translate(0 0.09375)"/>
     <use xlink:href="#DejaVuSans-34" transform="translate(69.482422 -16.3125) scale(0.7)"/>
    </g>
   </g>
   <g id="patch_7">
    <path d="M 287.150286 110.48 
C 287.866335 110.48 288.553152 110.195511 289.059475 109.689188 
C 289.565797 109.182866 289.850286 108.496048 289.850286 107.78 
C 289.850286 107.063952 289.565797 106.377134 289.059475 105.870812 
C 288.553152 105.364489 287.866335 105.08 287.150286 105.08 
C 286.434238 105.08 285.747421 105.364489 285.241098 105.870812 
C 284.734775 106.377134 284.450286 107.063952 284.450286 107.78 
C 284.450286 108.496048 284.734775 109.182866 285.241098 109.689188 
C 285.747421 110.195511 286.434238 110.48 287.150286 110.48 
z
" clip-path="url(#pfb530e91a9)" style="stroke: #000000; stroke-width: 2; stroke-linejoin: miter"/>
   </g>
   <g id="text_7">
    <!-- $v_{s}$ -->
    <g transform="translate(293.450286 111.643125) scale(0.14 -0.14)">
     <defs>
      <path id="DejaVuSans-Oblique-73" d="M 3200 3397 
L 3091 2853 
Q 2863 2978 2609 3040 
Q 2356 3103 2088 3103 
Q 1634 3103 1373 2948 
Q 1113 2794 1113 2528 
Q 1113 2219 1719 2053 
Q 1766 2041 1788 2034 
L 1972 1978 
Q 2547 1819 2739 1644 
Q 2931 1469 2931 1166 
Q 2931 609 2489 259 
Q 2047 -91 1331 -91 
Q 1053 -91 747 -37 
Q 441 16 72 128 
L 184 722 
Q 500 559 806 475 
Q 1113 391 1394 391 
Q 1816 391 2080 572 
Q 2344 753 2344 1031 
Q 2344 1331 1650 1516 
L 1591 1531 
L 1394 1581 
Q 956 1697 753 1886 
Q 550 2075 550 2369 
Q 550 2928 970 3256 
Q 1391 3584 2113 3584 
Q 2397 3584 2667 3537 
Q 2938 3491 3200 3397 
z
" transform="scale(0.015625)"/>
     </defs>
     <use xlink:href="#DejaVuSans-Oblique-76" transform="translate(0 0.3125)"/>
     <use xlink:href="#DejaVuSans-Oblique-73" transform="translate(59.179688 -16.09375) scale(0.7)"/>
    </g>
   </g>
  </g>
 </g>
 <defs>
  <clipPath id="pfb530e91a9">
   <rect x="0" y="-0" width="315.518286" height="212"/>
  </clipPath>
 </defs>
</svg>
