<?xml version="1.0" encoding="utf-8" standalone="no"?>
<!DOCTYPE svg PUBLIC "-//W3C//DTD SVG 1.1//EN"
  "http://www.w3.org/Graphics/SVG/1.1/DTD/svg11.dtd">
<svg xmlns:xlink="http://www.w3.org/1999/xlink" width="299.990286pt" height="157.46pt" viewBox="0 0 299.990286 157.46" xmlns="http://www.w3.org/2000/svg" version="1.1">
 <metadata>
  <rdf:RDF xmlns:dc="http://purl.org/dc/elements/1.1/" xmlns:cc="http://creativecommons.org/ns#" xmlns:rdf="http://www.w3.org/1999/02/22-rdf-syntax-ns#">
   <cc:Work>
    <dc:type rdf:resource="http://purl.org/dc/dcmitype/StillImage"/>
    <dc:date>2025-09-27T22:01:23.238386</dc:date>
    <dc:format>image/svg+xml</dc:format>
    <dc:creator>
     <cc:Agent>
      <dc:title>Matplotlib v3.10.0, https://matplotlib.org/</dc:title>
     </cc:Agent>
    </dc:creator>
   </cc:Work>
  </rdf:RDF>
 </metadata>
 <defs>
  <style type="text/css">*{stroke-linejoin: round; stroke-linecap: butt}</style>
 </defs>
 <g id="figure_1">
  <g id="patch_1">
   <path d="M 0 157.46 
L 299.990286 157.46 
L 299.990286 0 
L 0 0 
L 0 157.46 
z
" style="fill: none"/>
  </g>
  <g id="axes_1">
   <g id="line2d_1">
    <path d="M 144.18 107.78 
L 144.18 62.78 
L 222.122286 107.78 
L 144.18 152.78 
L 144.18 107.78 
M 222.122286 107.78 
" clip-path="url(#p66a1dbb568)" style="fill: none; stroke: #000000; stroke-width: 2; stroke-linecap: round"/>
   </g>
   <g id="line2d_2">
    <path d="M 150.322786 85.28 
L 157.522786 85.28 
" clip-path="url(#p66a1dbb568)" style="fill: none; stroke: #000000; stroke-width: 2; stroke-linecap: round"/>
   </g>
   <g id="line2d_3">
    <path d="M 150.322786 130.28 
L 157.522786 130.28 
" clip-path="url(#p66a1dbb568)" style="fill: none; stroke: #000000; stroke-width: 2; stroke-linecap: round"/>
   </g>
   <g id="line2d_4">
    <path d="M 153.922786 133.88 
L 153.922786 126.68 
" clip-path="url(#p66a1dbb568)" style="fill: none; stroke: #000000; stroke-width: 2; stroke-linecap: round"/>
   </g>
   <g id="line2d_5">
    <path d="M 121.68 85.28 
L 144.18 85.28 
" clip-path="url(#p66a1dbb568)" style="fill: none; stroke: #000000; stroke-width: 2; stroke-linecap: round"/>
   </g>
   <g id="line2d_6">
    <path d="M 121.68 130.28 
L 144.18 130.28 
" clip-path="url(#p66a1dbb568)" style="fill: none; stroke: #000000; stroke-width: 2; stroke-linecap: round"/>
   </g>
   <g id="line2d_7">
    <path d="M 222.122286 107.78 
L 244.622286 107.78 
" clip-path="url(#p66a1dbb568)" style="fill: none; stroke: #000000; stroke-width: 2; stroke-linecap: round"/>
   </g>
   <g id="line2d_8">
    <path d="M 121.68 130.28 
L 108.18 130.28 
L 94.68 130.28 
" clip-path="url(#p66a1dbb568)" style="fill: none; stroke: #000000; stroke-width: 2; stroke-linecap: round"/>
   </g>
   <g id="line2d_9">
    <path d="M 121.68 85.28 
L 85.68 85.28 
L 85.68 94.28 
L 49.68 94.28 
L 49.68 76.28 
L 85.68 76.28 
L 85.68 85.28 
M 49.68 85.28 
L 13.68 85.28 
" clip-path="url(#p66a1dbb568)" style="fill: none; stroke: #000000; stroke-width: 2; stroke-linecap: round"/>
   </g>
   <g id="line2d_10">
    <path d="M 13.68 85.28 
L 13.68 99.68 
L 4.68 99.68 
L 22.68 99.68 
M 7.38 104 
L 19.98 104 
M 11.88 108.32 
L 15.48 108.32 
" clip-path="url(#p66a1dbb568)" style="fill: none; stroke: #000000; stroke-width: 2; stroke-linecap: round"/>
   </g>
   <g id="line2d_11">
    <path d="M 121.68 85.28 
L 121.68 58.28 
L 121.68 31.28 
" clip-path="url(#p66a1dbb568)" style="fill: none; stroke: #000000; stroke-width: 2; stroke-linecap: round"/>
   </g>
   <g id="line2d_12">
    <path d="M 121.68 31.28 
L 165.151143 31.28 
L 165.151143 22.28 
L 201.151143 22.28 
L 201.151143 40.28 
L 165.151143 40.28 
L 165.151143 31.28 
M 201.151143 31.28 
L 244.622286 31.28 
" clip-path="url(#p66a1dbb568)" style="fill: none; stroke: #000000; stroke-width: 2; stroke-linecap: round"/>
   </g>
   <g id="line2d_13">
    <path d="M 244.622286 31.28 
L 244.622286 69.53 
L 244.622286 107.78 
" clip-path="url(#p66a1dbb568)" style="fill: none; stroke: #000000; stroke-width: 2; stroke-linecap: round"/>
   </g>
   <g id="line2d_14">
    <path d="M 244.622286 107.78 
L 258.122286 107.78 
L 271.622286 107.78 
" clip-path="url(#p66a1dbb568)" style="fill: none; stroke: #000000; stroke-width: 2; stroke-linecap: round"/>
   </g>
   <g id="patch_2">
    <path d="M 94.68 132.98 
C 95.396048 132.98 96.082866 132.695511 96.589188 132.189188 
C 97.095511 131.682866 97.38 130.996048 97.38 130.28 
C 97.38 129.563952 97.095511 128.877134 96.589188 128.370812 
C 96.082866 127.864489 95.396048 127.58 94.68 127.58 
C 93.963952 127.58 93.277134 127.864489 92.770812 128.370812 
C 92.264489 128.877134 91.98 129.563952 91.98 130.28 
C 91.98 130.996048 92.264489 131.682866 92.770812 132.189188 
C 93.277134 132.695511 93.963952 132.98 94.68 132.98 
z
" clip-path="url(#p66a1dbb568)" style="stroke: #000000; stroke-width: 2; stroke-linejoin: miter"/>
   </g>
   <g id="text_1">
    <!-- $v_{e}$ -->
    <g transform="translate(73.68 134.143125) scale(0.14 -0.14)">
     <defs>
      <path id="DejaVuSans-Oblique-76" d="M 459 3500 
L 1069 3500 
L 1581 525 
L 3256 3500 
L 3866 3500 
L 1875 0 
L 1100 0 
L 459 3500 
z
" transform="scale(0.015625)"/>
      <path id="DejaVuSans-Oblique-65" d="M 3078 2063 
Q 3088 2113 3092 2166 
Q 3097 2219 3097 2272 
Q 3097 2653 2873 2875 
Q 2650 3097 2266 3097 
Q 1838 3097 1509 2826 
Q 1181 2556 1013 2059 
L 3078 2063 
z
M 3578 1613 
L 903 1613 
Q 884 1494 878 1425 
Q 872 1356 872 1306 
Q 872 872 1139 634 
Q 1406 397 1894 397 
Q 2269 397 2603 481 
Q 2938 566 3225 728 
L 3116 159 
Q 2806 34 2476 -28 
Q 2147 -91 1806 -91 
Q 1078 -91 686 257 
Q 294 606 294 1247 
Q 294 1794 489 2264 
Q 684 2734 1063 3103 
Q 1306 3334 1642 3459 
Q 1978 3584 2356 3584 
Q 2950 3584 3301 3228 
Q 3653 2872 3653 2272 
Q 3653 2128 3634 1964 
Q 3616 1800 3578 1613 
z
" transform="scale(0.015625)"/>
     </defs>
     <use xlink:href="#DejaVuSans-Oblique-76" transform="translate(0 0.3125)"/>
     <use xlink:href="#DejaVuSans-Oblique-65" transform="translate(59.179688 -16.09375) scale(0.7)"/>
    </g>
   </g>
   <g id="patch_3">
    <path d="M 121.68 87.98 
C 122.396048 87.98 123.082866 87.695511 123.589188 87.189188 
C 124.095511 86.682866 124.38 85.996048 124.38 85.28 
C 124.38 84.563952 124.095511 83.877134 123.589188 83.370812 
C 123.082866 82.864489 122.396048 82.58 121.68 82.58 
C 120.963952 82.58 120.277134 82.864489 119.770812 83.370812 
C 119.264489 83.877134 118.98 84.563952 118.98 85.28 
C 118.98 85.996048 119.264489 86.682866 119.770812 87.189188 
C 120.277134 87.695511 120.963952 87.98 121.68 87.98 
z
" clip-path="url(#p66a1dbb568)" style="stroke: #000000; stroke-width: 2; stroke-linejoin: miter"/>
   </g>
   <g id="text_2">
    <!-- $R_{1}$ -->
    <g transform="translate(60.84 108.517812) scale(0.14 -0.14)">
     <defs>
      <path id="DejaVuSans-Oblique-52" d="M 1613 4147 
L 1294 2491 
L 2106 2491 
Q 2584 2491 2879 2755 
Q 3175 3019 3175 3444 
Q 3175 3784 2976 3965 
Q 2778 4147 2406 4147 
L 1613 4147 
z
M 2772 2241 
Q 2972 2194 3105 2009 
Q 3238 1825 3413 1275 
L 3809 0 
L 3144 0 
L 2778 1197 
Q 2638 1659 2453 1815 
Q 2269 1972 1888 1972 
L 1191 1972 
L 806 0 
L 172 0 
L 1081 4666 
L 2503 4666 
Q 3150 4666 3495 4373 
Q 3841 4081 3841 3531 
Q 3841 3044 3547 2687 
Q 3253 2331 2772 2241 
z
" transform="scale(0.015625)"/>
      <path id="DejaVuSans-31" d="M 794 531 
L 1825 531 
L 1825 4091 
L 703 3866 
L 703 4441 
L 1819 4666 
L 2450 4666 
L 2450 531 
L 3481 531 
L 3481 0 
L 794 0 
L 794 531 
z
" transform="scale(0.015625)"/>
     </defs>
     <use xlink:href="#DejaVuSans-Oblique-52" transform="translate(0 0.09375)"/>
     <use xlink:href="#DejaVuSans-31" transform="translate(69.482422 -16.3125) scale(0.7)"/>
    </g>
   </g>
   <g id="text_3">
    <!-- $R_{2}$ -->
    <g transform="translate(174.961143 15.768437) scale(0.14 -0.14)">
     <defs>
      <path id="DejaVuSans-32" d="M 1228 531 
L 3431 531 
L 3431 0 
L 469 0 
L 469 531 
Q 828 903 1448 1529 
Q 2069 2156 2228 2338 
Q 2531 2678 2651 2914 
Q 2772 3150 2772 3378 
Q 2772 3750 2511 3984 
Q 2250 4219 1831 4219 
Q 1534 4219 1204 4116 
Q 875 4013 500 3803 
L 500 4441 
Q 881 4594 1212 4672 
Q 1544 4750 1819 4750 
Q 2544 4750 2975 4387 
Q 3406 4025 3406 3419 
Q 3406 3131 3298 2873 
Q 3191 2616 2906 2266 
Q 2828 2175 2409 1742 
Q 1991 1309 1228 531 
z
" transform="scale(0.015625)"/>
     </defs>
     <use xlink:href="#DejaVuSans-Oblique-52" transform="translate(0 0.09375)"/>
     <use xlink:href="#DejaVuSans-32" transform="translate(69.482422 -16.3125) scale(0.7)"/>
    </g>
   </g>
   <g id="patch_4">
    <path d="M 244.622286 110.48 
C 245.338335 110.48 246.025152 110.195511 246.531475 109.689188 
C 247.037797 109.182866 247.322286 108.496048 247.322286 107.78 
C 247.322286 107.063952 247.037797 106.377134 246.531475 105.870812 
C 246.025152 105.364489 245.338335 105.08 244.622286 105.08 
C 243.906238 105.08 243.219421 105.364489 242.713098 105.870812 
C 242.206775 106.377134 241.922286 107.063952 241.922286 107.78 
C 241.922286 108.496048 242.206775 109.182866 242.713098 109.689188 
C 243.219421 110.195511 243.906238 110.48 244.622286 110.48 
z
" clip-path="url(#p66a1dbb568)" style="stroke: #000000; stroke-width: 2; stroke-linejoin: miter"/>
   </g>
   <g id="patch_5">
    <path d="M 271.622286 110.48 
C 272.338335 110.48 273.025152 110.195511 273.531475 109.689188 
C 274.037797 109.182866 274.322286 108.496048 274.322286 107.78 
C 274.322286 107.063952 274.037797 106.377134 273.531475 105.870812 
C 273.025152 105.364489 272.338335 105.08 271.622286 105.08 
C 270.906238 105.08 270.219421 105.364489 269.713098 105.870812 
C 269.206775 106.377134 268.922286 107.063952 268.922286 107.78 
C 268.922286 108.496048 269.206775 109.182866 269.713098 109.689188 
C 270.219421 110.195511 270.906238 110.48 271.622286 110.48 
z
" clip-path="url(#p66a1dbb568)" style="stroke: #000000; stroke-width: 2; stroke-linejoin: miter"/>
   </g>
   <g id="text_4">
    <!-- $v_{s}$ -->
    <g transform="translate(277.922286 111.643125) scale(0.14 -0.14)">
     <defs>
      <path id="DejaVuSans-Oblique-73" d="M 3200 3397 
L 3091 2853 
Q 2863 2978 2609 3040 
Q 2356 3103 2088 3103 
Q 1634 3103 1373 2948 
Q 1113 2794 1113 2528 
Q 1113 2219 1719 2053 
Q 1766 2041 1788 2034 
L 1972 1978 
Q 2547 1819 2739 1644 
Q 2931 1469 2931 1166 
Q 2931 609 2489 259 
Q 2047 -91 1331 -91 
Q 1053 -91 747 -37 
Q 441 16 72 128 
L 184 722 
Q 500 559 806 475 
Q 1113 391 1394 391 
Q 1816 391 2080 572 
Q 2344 753 2344 1031 
Q 2344 1331 1650 1516 
L 1591 1531 
L 1394 1581 
Q 956 1697 753 1886 
Q 550 2075 550 2369 
Q 550 2928 970 3256 
Q 1391 3584 2113 3584 
Q 2397 3584 2667 3537 
Q 2938 3491 3200 3397 
z
" transform="scale(0.015625)"/>
     </defs>
     <use xlink:href="#DejaVuSans-Oblique-76" transform="translate(0 0.3125)"/>
     <use xlink:href="#DejaVuSans-Oblique-73" transform="translate(59.179688 -16.09375) scale(0.7)"/>
    </g>
   </g>
  </g>
 </g>
 <defs>
  <clipPath id="p66a1dbb568">
   <rect x="0" y="-0" width="299.990286" height="157.46"/>
  </clipPath>
 </defs>
</svg>
