<?xml version="1.0" encoding="utf-8" standalone="no"?>
<!DOCTYPE svg PUBLIC "-//W3C//DTD SVG 1.1//EN"
  "http://www.w3.org/Graphics/SVG/1.1/DTD/svg11.dtd">
<svg xmlns:xlink="http://www.w3.org/1999/xlink" width="211.284pt" height="123.26pt" viewBox="0 0 211.284 123.26" xmlns="http://www.w3.org/2000/svg" version="1.1">
 <metadata>
  <rdf:RDF xmlns:dc="http://purl.org/dc/elements/1.1/" xmlns:cc="http://creativecommons.org/ns#" xmlns:rdf="http://www.w3.org/1999/02/22-rdf-syntax-ns#">
   <cc:Work>
    <dc:type rdf:resource="http://purl.org/dc/dcmitype/StillImage"/>
    <dc:date>2025-09-27T22:01:24.765926</dc:date>
    <dc:format>image/svg+xml</dc:format>
    <dc:creator>
     <cc:Agent>
      <dc:title>Matplotlib v3.10.0, https://matplotlib.org/</dc:title>
     </cc:Agent>
    </dc:creator>
   </cc:Work>
  </rdf:RDF>
 </metadata>
 <defs>
  <style type="text/css">*{stroke-linejoin: round; stroke-linecap: butt}</style>
 </defs>
 <g id="figure_1">
  <g id="patch_1">
   <path d="M 0 123.26 
L 211.284 123.26 
L 211.284 0 
L 0 0 
L 0 123.26 
z
" style="fill: none"/>
  </g>
  <g id="axes_1">
   <g id="patch_2">
    <path d="M 87.642 43.88 
C 89.550826 43.88 91.383425 43.120913 92.733169 41.771169 
C 94.082913 40.421425 94.842 38.588826 94.842 36.68 
C 94.842 34.771174 94.082913 32.938575 92.733169 31.588831 
C 91.383425 30.239087 89.550826 29.48 87.642 29.48 
" clip-path="url(#p65b7cd6219)" style="fill: none; stroke: #000000; stroke-width: 2; stroke-linejoin: miter"/>
   </g>
   <g id="patch_3">
    <path d="M 87.642 58.28 
C 89.550826 58.28 91.383425 57.520913 92.733169 56.171169 
C 94.082913 54.821425 94.842 52.988826 94.842 51.08 
C 94.842 49.171174 94.082913 47.338575 92.733169 45.988831 
C 91.383425 44.639087 89.550826 43.88 87.642 43.88 
" clip-path="url(#p65b7cd6219)" style="fill: none; stroke: #000000; stroke-width: 2; stroke-linejoin: miter"/>
   </g>
   <g id="patch_4">
    <path d="M 87.642 72.68 
C 89.550826 72.68 91.383425 71.920913 92.733169 70.571169 
C 94.082913 69.221425 94.842 67.388826 94.842 65.48 
C 94.842 63.571174 94.082913 61.738575 92.733169 60.388831 
C 91.383425 59.039087 89.550826 58.28 87.642 58.28 
" clip-path="url(#p65b7cd6219)" style="fill: none; stroke: #000000; stroke-width: 2; stroke-linejoin: miter"/>
   </g>
   <g id="patch_5">
    <path d="M 87.642 87.08 
C 89.550826 87.08 91.383425 86.320913 92.733169 84.971169 
C 94.082913 83.621425 94.842 81.788826 94.842 79.88 
C 94.842 77.971174 94.082913 76.138575 92.733169 74.788831 
C 91.383425 73.439087 89.550826 72.68 87.642 72.68 
" clip-path="url(#p65b7cd6219)" style="fill: none; stroke: #000000; stroke-width: 2; stroke-linejoin: miter"/>
   </g>
   <g id="patch_6">
    <path d="M 87.642 101.48 
C 89.550826 101.48 91.383425 100.720913 92.733169 99.371169 
C 94.082913 98.021425 94.842 96.188826 94.842 94.28 
C 94.842 92.371174 94.082913 90.538575 92.733169 89.188831 
C 91.383425 87.839087 89.550826 87.08 87.642 87.08 
" clip-path="url(#p65b7cd6219)" style="fill: none; stroke: #000000; stroke-width: 2; stroke-linejoin: miter"/>
   </g>
   <g id="patch_7">
    <path d="M 87.642 115.88 
C 89.550826 115.88 91.383425 115.120913 92.733169 113.771169 
C 94.082913 112.421425 94.842 110.588826 94.842 108.68 
C 94.842 106.771174 94.082913 104.938575 92.733169 103.588831 
C 91.383425 102.239087 89.550826 101.48 87.642 101.48 
" clip-path="url(#p65b7cd6219)" style="fill: none; stroke: #000000; stroke-width: 2; stroke-linejoin: miter"/>
   </g>
   <g id="patch_8">
    <path d="M 123.642 36.68 
C 121.733174 36.68 119.900575 37.439087 118.550831 38.788831 
C 117.201087 40.138575 116.442 41.971174 116.442 43.88 
C 116.442 45.788826 117.201087 47.621425 118.550831 48.971169 
C 119.900575 50.320913 121.733174 51.08 123.642 51.08 
" clip-path="url(#p65b7cd6219)" style="fill: none; stroke: #000000; stroke-width: 2; stroke-linejoin: miter"/>
   </g>
   <g id="patch_9">
    <path d="M 123.642 51.08 
C 121.733174 51.08 119.900575 51.839087 118.550831 53.188831 
C 117.201087 54.538575 116.442 56.371174 116.442 58.28 
C 116.442 60.188826 117.201087 62.021425 118.550831 63.371169 
C 119.900575 64.720913 121.733174 65.48 123.642 65.48 
" clip-path="url(#p65b7cd6219)" style="fill: none; stroke: #000000; stroke-width: 2; stroke-linejoin: miter"/>
   </g>
   <g id="patch_10">
    <path d="M 123.642 65.48 
C 121.733174 65.48 119.900575 66.239087 118.550831 67.588831 
C 117.201087 68.938575 116.442 70.771174 116.442 72.68 
C 116.442 74.588826 117.201087 76.421425 118.550831 77.771169 
C 119.900575 79.120913 121.733174 79.88 123.642 79.88 
" clip-path="url(#p65b7cd6219)" style="fill: none; stroke: #000000; stroke-width: 2; stroke-linejoin: miter"/>
   </g>
   <g id="patch_11">
    <path d="M 123.642 79.88 
C 121.733174 79.88 119.900575 80.639087 118.550831 81.988831 
C 117.201087 83.338575 116.442 85.171174 116.442 87.08 
C 116.442 88.988826 117.201087 90.821425 118.550831 92.171169 
C 119.900575 93.520913 121.733174 94.28 123.642 94.28 
" clip-path="url(#p65b7cd6219)" style="fill: none; stroke: #000000; stroke-width: 2; stroke-linejoin: miter"/>
   </g>
   <g id="patch_12">
    <path d="M 123.642 94.28 
C 121.733174 94.28 119.900575 95.039087 118.550831 96.388831 
C 117.201087 97.738575 116.442 99.571174 116.442 101.48 
C 116.442 103.388826 117.201087 105.221425 118.550831 106.571169 
C 119.900575 107.920913 121.733174 108.68 123.642 108.68 
" clip-path="url(#p65b7cd6219)" style="fill: none; stroke: #000000; stroke-width: 2; stroke-linejoin: miter"/>
   </g>
   <g id="line2d_1">
    <path d="M 102.042 29.48 
L 102.042 115.88 
" clip-path="url(#p65b7cd6219)" style="fill: none; stroke: #000000; stroke-width: 2; stroke-linecap: round"/>
   </g>
   <g id="line2d_2">
    <path d="M 109.242 29.48 
L 109.242 115.88 
" clip-path="url(#p65b7cd6219)" style="fill: none; stroke: #000000; stroke-width: 2; stroke-linecap: round"/>
   </g>
   <g id="line2d_3">
    <path d="M 123.642 36.68 
L 159.642 36.68 
L 195.642 36.68 
" clip-path="url(#p65b7cd6219)" style="fill: none; stroke: #000000; stroke-width: 2; stroke-linecap: round"/>
   </g>
   <g id="line2d_4">
    <path d="M 123.642 108.68 
L 159.642 108.68 
L 195.642 108.68 
" clip-path="url(#p65b7cd6219)" style="fill: none; stroke: #000000; stroke-width: 2; stroke-linecap: round"/>
   </g>
   <g id="line2d_5">
    <path d="M 87.642 29.48 
L 51.642 29.48 
L 15.642 29.48 
" clip-path="url(#p65b7cd6219)" style="fill: none; stroke: #000000; stroke-width: 2; stroke-linecap: round"/>
   </g>
   <g id="line2d_6">
    <path d="M 87.642 115.88 
L 51.642 115.88 
L 15.642 115.88 
" clip-path="url(#p65b7cd6219)" style="fill: none; stroke: #000000; stroke-width: 2; stroke-linecap: round"/>
   </g>
   <g id="text_1">
    <!-- $N_{P}:N_{S}$ -->
    <g transform="translate(83.592 22.968437) scale(0.14 -0.14)">
     <defs>
      <path id="DejaVuSans-Oblique-4e" d="M 1081 4666 
L 1931 4666 
L 3219 666 
L 4000 4666 
L 4616 4666 
L 3706 0 
L 2853 0 
L 1569 4025 
L 788 0 
L 172 0 
L 1081 4666 
z
" transform="scale(0.015625)"/>
      <path id="DejaVuSans-Oblique-50" d="M 1081 4666 
L 2541 4666 
Q 3178 4666 3512 4369 
Q 3847 4072 3847 3500 
Q 3847 2731 3353 2303 
Q 2859 1875 1966 1875 
L 1172 1875 
L 806 0 
L 172 0 
L 1081 4666 
z
M 1613 4147 
L 1275 2394 
L 2069 2394 
Q 2606 2394 2893 2669 
Q 3181 2944 3181 3456 
Q 3181 3784 2986 3965 
Q 2791 4147 2438 4147 
L 1613 4147 
z
" transform="scale(0.015625)"/>
      <path id="DejaVuSans-3a" d="M 750 794 
L 1409 794 
L 1409 0 
L 750 0 
L 750 794 
z
M 750 3309 
L 1409 3309 
L 1409 2516 
L 750 2516 
L 750 3309 
z
" transform="scale(0.015625)"/>
      <path id="DejaVuSans-Oblique-53" d="M 3859 4513 
L 3738 3897 
Q 3422 4066 3111 4152 
Q 2800 4238 2509 4238 
Q 1944 4238 1609 3991 
Q 1275 3744 1275 3334 
Q 1275 3109 1398 2989 
Q 1522 2869 2034 2731 
L 2413 2638 
Q 3053 2472 3303 2217 
Q 3553 1963 3553 1503 
Q 3553 797 2998 353 
Q 2444 -91 1538 -91 
Q 1166 -91 791 -17 
Q 416 56 38 206 
L 166 856 
Q 513 641 861 531 
Q 1209 422 1556 422 
Q 2147 422 2503 684 
Q 2859 947 2859 1369 
Q 2859 1650 2717 1795 
Q 2575 1941 2106 2059 
L 1728 2156 
Q 1081 2325 845 2545 
Q 609 2766 609 3163 
Q 609 3859 1145 4304 
Q 1681 4750 2541 4750 
Q 2875 4750 3203 4690 
Q 3531 4631 3859 4513 
z
" transform="scale(0.015625)"/>
     </defs>
     <use xlink:href="#DejaVuSans-Oblique-4e" transform="translate(0 0.09375)"/>
     <use xlink:href="#DejaVuSans-Oblique-50" transform="translate(74.804688 -16.3125) scale(0.7)"/>
     <use xlink:href="#DejaVuSans-3a" transform="translate(139.233398 0.09375)"/>
     <use xlink:href="#DejaVuSans-Oblique-4e" transform="translate(192.407227 0.09375)"/>
     <use xlink:href="#DejaVuSans-Oblique-53" transform="translate(267.211914 -16.3125) scale(0.7)"/>
    </g>
   </g>
   <g id="patch_13">
    <path d="M 195.642 39.38 
C 196.358048 39.38 197.044866 39.095511 197.551188 38.589188 
C 198.057511 38.082866 198.342 37.396048 198.342 36.68 
C 198.342 35.963952 198.057511 35.277134 197.551188 34.770812 
C 197.044866 34.264489 196.358048 33.98 195.642 33.98 
C 194.925952 33.98 194.239134 34.264489 193.732812 34.770812 
C 193.226489 35.277134 192.942 35.963952 192.942 36.68 
C 192.942 37.396048 193.226489 38.082866 193.732812 38.589188 
C 194.239134 39.095511 194.925952 39.38 195.642 39.38 
z
" clip-path="url(#p65b7cd6219)" style="stroke: #000000; stroke-width: 2; stroke-linejoin: miter"/>
   </g>
   <g id="patch_14">
    <path d="M 195.642 111.38 
C 196.358048 111.38 197.044866 111.095511 197.551188 110.589188 
C 198.057511 110.082866 198.342 109.396048 198.342 108.68 
C 198.342 107.963952 198.057511 107.277134 197.551188 106.770812 
C 197.044866 106.264489 196.358048 105.98 195.642 105.98 
C 194.925952 105.98 194.239134 106.264489 193.732812 106.770812 
C 193.226489 107.277134 192.942 107.963952 192.942 108.68 
C 192.942 109.396048 193.226489 110.082866 193.732812 110.589188 
C 194.239134 111.095511 194.925952 111.38 195.642 111.38 
z
" clip-path="url(#p65b7cd6219)" style="stroke: #000000; stroke-width: 2; stroke-linejoin: miter"/>
   </g>
   <g id="text_2">
    <!-- + -->
    <g transform="translate(189.776219 58.543125) scale(0.14 -0.14)">
     <defs>
      <path id="DejaVuSans-2b" d="M 2944 4013 
L 2944 2272 
L 4684 2272 
L 4684 1741 
L 2944 1741 
L 2944 0 
L 2419 0 
L 2419 1741 
L 678 1741 
L 678 2272 
L 2419 2272 
L 2419 4013 
L 2944 4013 
z
" transform="scale(0.015625)"/>
     </defs>
     <use xlink:href="#DejaVuSans-2b"/>
    </g>
   </g>
   <g id="text_3">
    <!-- $U_S$ -->
    <g transform="translate(187.172 76.543125) scale(0.14 -0.14)">
     <defs>
      <path id="DejaVuSans-Oblique-55" d="M 991 4666 
L 1625 4666 
L 1075 1831 
Q 1041 1641 1027 1517 
Q 1013 1394 1013 1300 
Q 1013 869 1253 645 
Q 1494 422 1959 422 
Q 2563 422 2898 753 
Q 3234 1084 3378 1831 
L 3928 4666 
L 4563 4666 
L 4000 1753 
Q 3816 809 3300 359 
Q 2784 -91 1888 -91 
Q 1188 -91 780 261 
Q 372 613 372 1216 
Q 372 1325 387 1461 
Q 403 1597 434 1753 
L 991 4666 
z
" transform="scale(0.015625)"/>
     </defs>
     <use xlink:href="#DejaVuSans-Oblique-55" transform="translate(0 0.09375)"/>
     <use xlink:href="#DejaVuSans-Oblique-53" transform="translate(73.193359 -16.3125) scale(0.7)"/>
    </g>
   </g>
   <g id="text_4">
    <!-- - -->
    <g transform="translate(193.116531 94.543125) scale(0.14 -0.14)">
     <defs>
      <path id="DejaVuSans-2d" d="M 313 2009 
L 1997 2009 
L 1997 1497 
L 313 1497 
L 313 2009 
z
" transform="scale(0.015625)"/>
     </defs>
     <use xlink:href="#DejaVuSans-2d"/>
    </g>
   </g>
   <g id="patch_15">
    <path d="M 15.642 32.18 
C 16.358048 32.18 17.044866 31.895511 17.551188 31.389188 
C 18.057511 30.882866 18.342 30.196048 18.342 29.48 
C 18.342 28.763952 18.057511 28.077134 17.551188 27.570812 
C 17.044866 27.064489 16.358048 26.78 15.642 26.78 
C 14.925952 26.78 14.239134 27.064489 13.732812 27.570812 
C 13.226489 28.077134 12.942 28.763952 12.942 29.48 
C 12.942 30.196048 13.226489 30.882866 13.732812 31.389188 
C 14.239134 31.895511 14.925952 32.18 15.642 32.18 
z
" clip-path="url(#p65b7cd6219)" style="stroke: #000000; stroke-width: 2; stroke-linejoin: miter"/>
   </g>
   <g id="patch_16">
    <path d="M 15.642 118.58 
C 16.358048 118.58 17.044866 118.295511 17.551188 117.789188 
C 18.057511 117.282866 18.342 116.596048 18.342 115.88 
C 18.342 115.163952 18.057511 114.477134 17.551188 113.970812 
C 17.044866 113.464489 16.358048 113.18 15.642 113.18 
C 14.925952 113.18 14.239134 113.464489 13.732812 113.970812 
C 13.226489 114.477134 12.942 115.163952 12.942 115.88 
C 12.942 116.596048 13.226489 117.282866 13.732812 117.789188 
C 14.239134 118.295511 14.925952 118.58 15.642 118.58 
z
" clip-path="url(#p65b7cd6219)" style="stroke: #000000; stroke-width: 2; stroke-linejoin: miter"/>
   </g>
   <g id="text_5">
    <!-- + -->
    <g transform="translate(9.776219 54.943125) scale(0.14 -0.14)">
     <use xlink:href="#DejaVuSans-2b"/>
    </g>
   </g>
   <g id="text_6">
    <!-- $U_P$ -->
    <g transform="translate(7.312 76.543125) scale(0.14 -0.14)">
     <use xlink:href="#DejaVuSans-Oblique-55" transform="translate(0 0.09375)"/>
     <use xlink:href="#DejaVuSans-Oblique-50" transform="translate(73.193359 -16.3125) scale(0.7)"/>
    </g>
   </g>
   <g id="text_7">
    <!-- - -->
    <g transform="translate(13.116531 98.143125) scale(0.14 -0.14)">
     <use xlink:href="#DejaVuSans-2d"/>
    </g>
   </g>
   <g id="line2d_7">
    <path d="M 156.042 36.68 
L 156.042 36.68 
" clip-path="url(#p65b7cd6219)" style="fill: none; stroke: #000000; stroke-width: 2; stroke-linecap: round"/>
   </g>
   <g id="patch_17">
    <path d="M 156.042 31.28 
L 166.842 36.68 
L 156.042 42.08 
z
" clip-path="url(#p65b7cd6219)"/>
   </g>
   <g id="text_8">
    <!-- $I_{S}$ -->
    <g transform="translate(156.052 22.968438) scale(0.14 -0.14)">
     <defs>
      <path id="DejaVuSans-Oblique-49" d="M 1081 4666 
L 1716 4666 
L 806 0 
L 172 0 
L 1081 4666 
z
" transform="scale(0.015625)"/>
     </defs>
     <use xlink:href="#DejaVuSans-Oblique-49" transform="translate(0 0.09375)"/>
     <use xlink:href="#DejaVuSans-Oblique-53" transform="translate(29.492188 -16.3125) scale(0.7)"/>
    </g>
   </g>
   <g id="line2d_8">
    <path d="M 44.442 29.48 
L 44.442 29.48 
" clip-path="url(#p65b7cd6219)" style="fill: none; stroke: #000000; stroke-width: 2; stroke-linecap: round"/>
   </g>
   <g id="patch_18">
    <path d="M 44.442 24.08 
L 55.242 29.48 
L 44.442 34.88 
z
" clip-path="url(#p65b7cd6219)"/>
   </g>
   <g id="text_9">
    <!-- $I_{P}$ -->
    <g transform="translate(44.592 15.768437) scale(0.14 -0.14)">
     <use xlink:href="#DejaVuSans-Oblique-49" transform="translate(0 0.09375)"/>
     <use xlink:href="#DejaVuSans-Oblique-50" transform="translate(29.492188 -16.3125) scale(0.7)"/>
    </g>
   </g>
  </g>
 </g>
 <defs>
  <clipPath id="p65b7cd6219">
   <rect x="0" y="0" width="211.284" height="123.26"/>
  </clipPath>
 </defs>
</svg>
